<?xml version="1.0" encoding="UTF-8"?>
<svg width="100px" height="100px" viewBox="0 0 100 100" xmlns="http://www.w3.org/2000/svg">
  <g fill="#f39c12">
    <path d="M50 10c-8.284 0-15 6.716-15 15 0 5.117 2.574 9.624 6.488 12.335-4.103 2.486-7.988 6.634-10.488 12.665-2.5 6.031-2.5 12.031-1 17 1.5 4.969 4 9 8 12 4 3 9.5 4 12 4s8-1 12-4c4-3 6.5-7.031 8-12 1.5-4.969 1.5-10.969-1-17-2.5-6.031-6.385-10.179-10.488-12.665C62.426 34.624 65 30.117 65 25c0-8.284-6.716-15-15-15z"/>
    <path d="M30 25c0-11.046 8.954-20 20-20s20 8.954 20 20c0 7.818-4.479 14.58-11 17.929V45h-18v-2.071C34.479 39.58 30 32.818 30 25z" fill="#c0392b"/>
    <path d="M50 5c-5.523 0-10 4.477-10 10 0 3.436 1.736 6.466 4.379 8.277-2.774 1.68-5.4 4.481-7.083 8.559-1.689 4.078-1.689 8.133-.675 11.491 1.014 3.358 2.703 6.08 5.407 8.113 2.703 2.027 6.419 2.703 8.108 2.703s5.405-.676 8.108-2.703c2.703-2.033 4.392-4.754 5.407-8.113 1.014-3.358 1.014-7.412-.675-11.491-1.683-4.078-4.309-6.879-7.083-8.559C58.264 21.466 60 18.436 60 15c0-5.523-4.477-10-10-10z" fill="#e74c3c"/>
    <path d="M44 60c0-3.314 2.686-6 6-6s6 2.686 6 6-2.686 6-6 6-6-2.686-6-6z" fill="#f1c40f"/>
    <path d="M46 60c0-2.209 1.791-4 4-4s4 1.791 4 4-1.791 4-4 4-4-1.791-4-4z" fill="#f39c12"/>
  </g>
</svg>
