<?xml version="1.0" encoding="UTF-8"?>
<svg width="100px" height="100px" viewBox="0 0 100 100" xmlns="http://www.w3.org/2000/svg">
  <g fill="#f39c12">
    <path d="M15 25c0-5.523 4.477-10 10-10h50c5.523 0 10 4.477 10 10v50c0 5.523-4.477 10-10 10H25c-5.523 0-10-4.477-10-10V25z" fill="#f5deb3"/>
    <path d="M20 20v60c0 2.761 2.239 5 5 5h50c2.761 0 5-2.239 5-5V20c0-2.761-2.239-5-5-5H25c-2.761 0-5 2.239-5 5z" fill="#f8f1e5"/>
    <path d="M15 25c0-5.523 4.477-10 10-10s10 4.477 10 10-4.477 10-10 10-10-4.477-10-10zM65 25c0-5.523 4.477-10 10-10s10 4.477 10 10-4.477 10-10 10-10-4.477-10-10z" fill="#d35400"/>
    <path d="M15 75c0-5.523 4.477-10 10-10s10 4.477 10 10-4.477 10-10 10-10-4.477-10-10zM65 75c0-5.523 4.477-10 10-10s10 4.477 10 10-4.477 10-10 10-10-4.477-10-10z" fill="#d35400"/>
    <path d="M25 40h50v20H25V40z" fill="none" stroke="#7f8c8d" stroke-width="1" stroke-dasharray="4,2"/>
    <path d="M30 45h40v2H30v-2zM30 50h40v2H30v-2zM30 55h25v2H30v-2z" fill="#7f8c8d"/>
  </g>
</svg>
